<svg width="548" height="501" viewBox="0 0 548 501" fill="none" xmlns="http://www.w3.org/2000/svg">
<path opacity="0.0144928" d="M658.514 423.807C668.503 426.107 678.808 421.519 683.783 412.557L731.438 326.71C734.38 321.41 735.111 315.163 733.472 309.327L691.402 159.566C690.113 154.976 687.43 150.901 683.723 147.903L581.427 65.1691C574.706 59.7335 565.505 58.525 557.608 62.0408L482.458 95.5C474.561 99.0158 469.303 106.662 468.845 115.294L461.879 246.674C461.626 251.435 462.859 256.156 465.407 260.186L548.552 391.659C551.792 396.782 556.923 400.419 562.831 401.779L658.514 423.807Z" stroke="url(#paint0_linear_5438:24828)" stroke-width="4"/>
<path opacity="0.0289855" d="M640.898 427.474C650.731 430.27 661.23 426.24 666.666 417.582L718.452 335.116C721.681 329.974 722.745 323.765 721.415 317.842L687.656 167.594C686.608 162.929 684.132 158.706 680.572 155.514L583.567 68.5144C577.14 62.7507 568.027 61.0709 559.968 64.1646L483.707 93.4383C475.648 96.532 470 103.878 469.081 112.462L455.206 242.023C454.697 246.778 455.682 251.573 458.025 255.741L533.473 389.986C536.447 395.279 541.393 399.18 547.233 400.841L640.898 427.474Z" stroke="url(#paint1_linear_5438:24828)" stroke-width="4"/>
<path opacity="0.0434783" d="M623.304 430.586C632.957 433.868 643.619 430.404 649.499 422.075L705.193 343.182C708.699 338.215 710.096 332.062 709.078 326.068L683.565 175.788C682.762 171.06 680.501 166.7 677.099 163.32L585.549 72.3801C579.433 66.3043 570.432 64.1593 562.233 66.8235L485.092 91.888C476.893 94.5521 470.872 101.578 469.495 110.088L448.883 237.472C448.117 242.207 448.85 247.062 450.98 251.36L518.672 387.935C521.372 393.382 526.119 397.539 531.875 399.496L623.304 430.586Z" stroke="url(#paint2_linear_5438:24828)" stroke-width="4"/>
<path opacity="0.057971" d="M605.762 433.145C615.21 436.902 626.004 434.01 632.307 426.032L691.679 350.894C695.454 346.116 697.18 340.036 696.48 333.988L679.121 184.125C678.568 179.346 676.529 174.86 673.293 171.3L587.345 76.7485C581.553 70.3775 572.689 67.7745 564.372 70.0029L486.581 90.8471C478.265 93.0754 471.889 99.7619 470.059 108.175L442.902 233.034C441.879 237.735 442.356 242.638 444.267 247.054L504.165 385.518C506.583 391.107 511.118 395.509 516.776 397.759L605.762 433.145Z" stroke="url(#paint3_linear_5438:24828)" stroke-width="4"/>
<path opacity="0.0724638" d="M588.301 435.162C597.521 439.381 608.415 437.065 615.122 429.461L677.931 358.242C681.965 353.668 684.017 347.68 683.637 341.593L674.319 192.585C674.017 187.768 672.209 183.168 669.148 179.436L588.926 81.6066C583.474 74.9581 574.769 71.9057 566.359 73.6933L488.145 90.3182C479.735 92.1058 473.024 98.435 470.747 106.726L437.251 228.728C435.974 233.381 436.192 238.319 437.876 242.842L489.971 382.758C492.099 388.473 496.409 393.109 501.955 395.647L588.301 435.162Z" stroke="url(#paint4_linear_5438:24828)" stroke-width="4"/>
<path opacity="0.0869565" d="M570.951 436.642C579.919 441.309 590.884 439.573 597.972 432.362L663.973 365.215C668.254 360.859 670.627 354.979 670.569 348.872L669.154 201.145C669.107 196.304 667.534 191.601 664.659 187.705L590.269 86.9348C585.169 80.0271 576.647 76.5348 568.166 77.878L489.756 90.297C481.275 91.6401 474.249 97.595 471.534 105.74L431.924 224.567C430.393 229.16 430.351 234.119 431.803 238.738L476.107 379.672C477.939 385.498 482.013 390.357 487.431 393.177L570.951 436.642Z" stroke="url(#paint5_linear_5438:24828)" stroke-width="4"/>
<path opacity="0.101449" d="M553.741 437.601C562.437 442.701 573.441 441.545 580.886 434.748L649.826 371.807C654.343 367.683 657.032 361.929 657.297 355.817L663.624 209.788C663.834 204.935 662.503 200.14 659.821 196.091L591.35 92.7183C586.615 85.5702 578.297 81.6491 569.77 82.5453L491.387 90.7838C482.86 91.68 475.539 97.2447 472.394 105.221L426.911 220.571C425.13 225.089 424.824 230.056 426.039 234.759L462.589 376.282C464.119 382.205 467.945 387.274 473.222 390.369L553.741 437.601Z" stroke="url(#paint6_linear_5438:24828)" stroke-width="4"/>
<path opacity="0.115942" d="M536.697 438.051C545.099 443.569 556.111 442.992 563.89 436.626L635.511 378.014C640.252 374.134 643.249 368.523 643.838 362.424L657.726 218.493C658.194 213.643 657.11 208.769 654.629 204.575L592.144 98.9399C587.785 91.5709 579.694 87.2329 571.144 87.681L493.008 91.776C484.458 92.2241 476.865 97.384 473.3 105.168L422.2 216.756C420.171 221.186 419.601 226.147 420.574 230.922L449.431 372.613C450.654 378.616 454.221 383.884 459.342 387.247L536.697 438.051Z" stroke="url(#paint7_linear_5438:24828)" stroke-width="4"/>
<path opacity="0.130435" d="M519.847 438.005C527.935 443.923 538.923 443.923 547.011 438.005L621.051 383.827C626.003 380.203 629.302 374.751 630.213 368.682L651.46 227.238C652.186 222.403 651.353 217.462 649.08 213.133L592.631 105.576C588.658 98.0061 580.814 93.2645 572.265 93.2645H494.593C486.044 93.2645 478.2 98.0061 474.227 105.576L417.778 213.133C415.505 217.462 414.672 222.403 415.398 227.238L436.645 368.682C437.556 374.751 440.855 380.203 445.807 383.827L519.847 438.005Z" stroke="url(#paint8_linear_5438:24828)" stroke-width="4"/>
<path opacity="0.144928" d="M503.215 437.48C510.969 443.781 521.905 444.354 530.275 438.898L606.467 389.245C611.617 385.889 615.209 380.611 616.442 374.59L644.824 236.004C645.809 231.198 645.231 226.203 643.174 221.749L592.789 112.609C589.211 104.858 581.635 99.7272 573.111 99.2804L496.114 95.2452C487.589 94.7984 479.518 99.1096 475.15 106.443L413.632 209.719C411.122 213.934 410.025 218.841 410.501 223.724L424.242 364.517C424.839 370.635 427.86 376.258 432.63 380.134L503.215 437.48Z" stroke="url(#paint9_linear_5438:24828)" stroke-width="4"/>
<path opacity="0.15942" d="M486.827 436.492C494.23 443.156 505.082 444.296 513.709 439.318L591.784 394.262C597.117 391.185 600.993 386.099 602.545 380.141L637.823 244.77C639.065 240.006 638.745 234.97 636.911 230.402L592.601 120.014C589.426 112.104 582.137 106.599 573.661 105.708L497.546 97.7079C489.07 96.8169 480.795 100.687 476.045 107.764L409.753 206.527C407.009 210.614 405.649 215.473 405.873 220.391L412.235 360.139C412.515 366.289 415.249 372.07 419.825 376.188L486.827 436.492Z" stroke="url(#paint10_linear_5438:24828)" stroke-width="4"/>
<path opacity="0.173913" d="M470.704 435.06C477.74 442.067 488.478 443.768 497.334 439.278L577.023 398.879C582.523 396.091 586.673 391.211 588.542 385.335L630.457 253.516C631.954 248.808 631.895 243.744 630.29 239.072L592.047 127.77C589.282 119.722 582.299 113.859 573.894 112.527L498.863 100.644C490.458 99.3125 482.005 102.731 476.888 109.531L406.123 203.568C403.152 207.515 401.532 212.313 401.501 217.253L400.63 355.572C400.591 361.739 403.03 367.662 407.4 372.014L470.704 435.06Z" stroke="url(#paint11_linear_5438:24828)" stroke-width="4"/>
<path opacity="0.188406" d="M454.871 433.204C461.523 440.533 472.118 442.785 481.176 438.795L562.207 403.097C567.859 400.607 572.272 395.948 574.453 390.169L622.731 262.223C624.481 257.585 624.686 252.505 623.314 247.742L591.113 135.855C588.763 127.689 582.103 121.485 573.792 119.718L500.042 104.042C491.731 102.276 483.123 105.235 477.655 111.738L402.73 200.855C399.539 204.649 397.661 209.372 397.373 214.321L389.436 350.842C389.078 357.008 391.215 363.06 395.366 367.634L454.871 433.204Z" stroke="url(#paint12_linear_5438:24828)" stroke-width="4"/>
<path opacity="0.202899" d="M439.346 430.939C445.599 438.57 456.023 441.363 465.254 437.881L547.355 406.911C553.144 404.727 557.809 400.303 560.297 394.638L614.647 270.866C616.647 266.311 617.117 261.231 615.985 256.386L589.782 144.238C587.852 135.977 581.532 129.45 573.338 127.254L501.056 107.886C492.862 105.691 484.125 108.184 478.323 114.373L399.557 198.394C396.154 202.024 394.02 206.659 393.475 211.604L378.658 345.968C377.98 352.118 379.808 358.282 383.729 363.067L439.346 430.939Z" stroke="url(#paint13_linear_5438:24828)" stroke-width="4"/>
<path opacity="0.217391" d="M424.151 428.295C429.992 436.205 440.216 439.527 449.591 436.561L532.493 410.331C538.402 408.461 543.306 404.286 546.095 398.752L606.214 279.435C608.461 274.976 609.196 269.907 608.307 264.994L588.042 152.902C586.536 144.568 580.571 137.737 572.517 135.12L501.885 112.17C493.831 109.553 484.99 111.574 478.872 117.43L396.591 196.203C392.985 199.656 390.6 204.189 389.796 209.117L368.302 340.983C367.304 347.1 368.818 353.36 372.5 358.346L424.151 428.295Z" stroke="url(#paint14_linear_5438:24828)" stroke-width="4"/>
<path opacity="0.231884" d="M409.301 425.284C414.718 433.451 424.715 437.289 434.206 434.844L517.639 413.351C523.651 411.803 528.782 407.889 531.865 402.501L597.437 287.901C599.926 283.552 600.926 278.508 600.285 273.538L585.881 161.813C584.8 153.427 579.205 146.311 571.312 143.281L502.505 116.869C494.612 113.839 485.693 115.384 479.279 120.892L393.815 194.281C390.013 197.546 387.382 201.964 386.321 206.861L358.368 335.902C357.054 341.969 358.248 348.31 361.68 353.484L409.301 425.284Z" stroke="url(#paint15_linear_5438:24828)" stroke-width="4"/>
<path opacity="0.246377" d="M394.815 421.936C399.797 430.337 409.541 434.676 419.118 432.756L502.817 415.983C508.914 414.761 514.257 411.122 517.627 405.895L588.324 296.253C591.05 292.025 592.315 287.021 591.925 282.005L583.288 170.95C582.634 162.535 577.423 155.155 569.712 151.722L502.897 121.973C495.187 118.541 486.215 119.607 479.524 124.751L391.214 192.643C387.226 195.709 384.353 199.998 383.036 204.852L348.861 330.756C347.232 336.757 348.103 343.163 351.275 348.512L394.815 421.936Z" stroke="url(#paint16_linear_5438:24828)" stroke-width="4"/>
<path opacity="0.26087" d="M380.707 418.277C385.244 426.888 394.71 431.711 404.343 430.32L488.045 418.233C494.211 417.343 499.752 413.989 503.4 408.94L578.885 304.474C581.842 300.381 583.37 295.429 583.234 290.381L580.256 180.29C580.028 171.867 575.213 164.243 567.706 160.418L503.04 127.469C495.533 123.644 486.535 124.23 479.587 128.996L388.771 191.298C384.607 194.154 381.499 198.301 379.926 203.1L339.78 325.571C337.84 331.491 338.383 337.945 341.287 343.456L380.707 418.277Z" stroke="url(#paint17_linear_5438:24828)" stroke-width="4"/>
<path opacity="0.275362" d="M366.992 414.326C371.075 423.123 380.238 428.414 389.899 427.551L473.345 420.104C479.561 419.549 485.285 416.492 489.203 411.634L569.128 312.542C572.31 308.597 574.1 303.71 574.219 298.643L576.777 189.799C576.975 181.391 572.567 173.545 565.284 169.34L502.917 133.333C495.633 129.127 486.635 129.233 479.452 133.608L386.47 190.246C382.141 192.883 378.804 196.876 376.978 201.604L331.124 320.368C328.877 326.189 329.091 332.675 331.719 338.335L366.992 414.326Z" stroke="url(#paint18_linear_5438:24828)" stroke-width="4"/>
<path opacity="0.289855" d="M353.679 410.106C357.302 419.065 366.139 424.804 375.797 424.47L458.735 421.6C464.983 421.384 470.874 418.634 475.052 413.982L559.063 320.44C562.463 316.653 564.512 311.847 564.888 306.772L572.845 199.451C573.466 191.078 569.475 183.033 562.435 178.461L502.507 139.544C495.467 134.971 486.494 134.598 479.098 138.571L384.291 189.491C379.808 191.899 376.25 195.725 374.175 200.372L322.89 315.167C320.34 320.875 320.223 327.376 322.567 333.172L353.679 410.106Z" stroke="url(#paint19_linear_5438:24828)" stroke-width="4"/>
<path opacity="0.304348" d="M340.782 405.65C343.939 414.746 352.427 420.913 362.053 421.105L444.235 422.738C450.497 422.863 456.539 420.428 460.965 415.997L548.704 328.157C552.314 324.542 554.618 319.828 555.253 314.758L568.457 209.223C569.497 200.908 565.933 192.686 559.154 187.76L501.798 146.089C495.019 141.163 486.097 140.314 478.511 143.873L382.222 189.043C377.596 191.213 373.825 194.862 371.503 199.412L315.074 310.001C312.228 315.579 311.779 322.078 313.833 327.995L340.782 405.65Z" stroke="url(#paint20_linear_5438:24828)" stroke-width="4"/>
<path opacity="0.318841" d="M328.308 400.981C330.994 410.19 339.113 416.764 348.679 417.477L429.864 423.526C436.121 423.992 442.297 421.882 446.961 417.684L538.061 335.677C541.874 332.245 544.43 327.637 545.322 322.585L563.611 219.088C565.066 210.852 561.936 202.475 555.436 197.212L500.773 152.946C494.273 147.683 485.429 146.363 477.675 149.499L380.242 188.906C375.487 190.83 371.511 194.288 368.946 198.731L307.672 304.89C304.536 310.324 303.755 316.804 305.512 322.828L328.308 400.981Z" stroke="url(#paint21_linear_5438:24828)" stroke-width="4"/>
<path opacity="0.333333" d="M316.265 396.122C318.477 405.418 326.207 412.378 335.684 413.606L415.638 423.97C421.872 424.778 428.165 422.999 433.053 419.047L527.147 342.982C531.153 339.744 533.956 335.255 535.107 330.234L558.305 229.015C560.17 220.878 557.479 212.37 551.276 206.785L499.418 160.092C493.215 154.506 484.472 152.72 476.575 155.425L378.336 189.076C373.462 190.746 369.291 194.002 366.489 198.325L300.676 299.854C297.257 305.129 296.146 311.574 297.601 317.689L316.265 396.122Z" stroke="url(#paint22_linear_5438:24828)" stroke-width="4"/>
<path opacity="0.347826" d="M304.659 391.102C306.396 400.461 313.718 407.783 323.077 409.52L401.574 424.085C407.766 425.234 414.159 423.793 419.26 420.099L515.977 350.062C520.167 347.028 523.211 342.671 524.619 337.694L552.541 238.98C554.808 230.964 552.563 222.348 546.672 216.457L497.722 167.507C491.831 161.616 483.215 159.371 475.199 161.638L376.485 189.56C371.508 190.967 367.15 194.012 364.117 198.201L294.079 294.919C290.386 300.02 288.945 306.412 290.094 312.605L304.659 391.102Z" stroke="url(#paint23_linear_5438:24828)" stroke-width="4"/>
<path opacity="0.362319" d="M293.495 385.944C294.755 395.342 301.653 403.002 310.867 405.238L387.69 423.88C393.822 425.368 400.295 424.271 405.595 420.847L504.566 356.901C508.929 354.082 512.209 349.869 513.873 344.948L546.321 248.954C548.983 241.078 547.188 232.378 541.624 226.199L495.674 175.166C490.11 168.987 481.646 166.292 473.534 168.116L374.674 190.353C369.606 191.493 365.074 194.315 361.814 198.359L287.873 290.103C283.914 295.016 282.146 301.34 282.985 307.594L293.495 385.944Z" stroke="url(#paint24_linear_5438:24828)" stroke-width="4"/>
<path opacity="0.376812" d="M282.774 380.681C283.559 390.092 290.017 398.066 299.058 400.79L373.998 423.373C380.051 425.197 386.588 424.449 392.073 421.305L492.926 363.493C497.452 360.898 500.962 356.842 502.879 351.99L539.648 258.916C542.697 251.199 541.353 242.439 536.131 235.991L493.263 183.052C488.041 176.604 479.751 173.468 471.57 174.846L372.885 191.461C367.74 192.327 363.043 194.916 359.564 198.804L282.046 285.434C277.83 290.145 275.74 296.383 276.266 302.683L282.774 380.681Z" stroke="url(#paint25_linear_5438:24828)" stroke-width="4"/>
<path opacity="0.391304" d="M272.498 375.333C272.811 384.732 278.814 392.994 287.656 396.196L360.515 422.573C366.471 424.73 373.053 424.334 378.707 421.48L481.075 369.82C485.753 367.459 489.485 363.572 491.652 358.801L532.529 268.834C535.954 261.296 535.063 252.5 530.196 245.801L490.481 191.138C485.614 184.439 477.523 180.874 469.296 181.802L371.101 192.876C365.894 193.464 361.043 195.812 357.352 199.531L276.587 280.925C272.126 285.421 269.716 291.558 269.926 297.888L272.498 375.333Z" stroke="url(#paint26_linear_5438:24828)" stroke-width="4"/>
<path opacity="0.405797" d="M262.668 369.928C262.511 379.292 268.047 387.816 276.665 391.481L347.254 421.497C353.095 423.981 359.701 423.941 365.511 421.387L469.028 375.877C473.846 373.759 477.793 370.051 480.208 365.374L524.97 278.687C528.76 271.347 528.323 262.537 523.823 255.608L487.322 199.402C482.823 192.474 474.953 188.49 466.705 188.967L369.306 194.601C364.051 194.905 359.059 197.002 355.164 200.542L271.485 276.599C266.789 280.868 264.065 286.887 263.958 293.233L262.668 369.928Z" stroke="url(#paint27_linear_5438:24828)" stroke-width="4"/>
<path opacity="0.42029" d="M253.282 364.494C252.66 373.798 257.717 382.557 266.086 386.67L334.228 420.161C339.935 422.966 346.548 423.283 352.497 421.037L456.802 381.654C461.749 379.786 465.901 376.271 468.56 371.7L516.979 288.451C521.124 281.325 521.138 272.526 517.016 265.387L483.782 207.823C479.66 200.684 472.033 196.297 463.79 196.323L367.484 196.631C362.196 196.648 357.076 198.486 352.985 201.837L266.726 272.476C261.806 276.505 258.774 282.391 258.349 288.736L253.282 364.494Z" stroke="url(#paint28_linear_5438:24828)" stroke-width="4"/>
<path opacity="0.434783" d="M244.334 359.053C243.253 368.274 247.822 377.241 255.918 381.786L321.446 418.577C327.001 421.696 333.602 422.371 339.674 420.441L444.413 387.141C449.476 385.532 453.825 382.22 456.722 377.767L508.565 298.098C513.051 291.204 513.515 282.44 509.781 275.112L479.853 216.375C476.119 209.047 468.756 204.27 460.542 203.847L365.616 198.961C360.311 198.688 355.075 200.259 350.797 203.409L262.293 268.572C257.162 272.349 253.828 278.086 253.086 284.414L244.334 359.053Z" stroke="url(#paint29_linear_5438:24828)" stroke-width="4"/>
<path opacity="0.449275" d="M235.824 353.632C234.291 362.747 238.363 371.895 246.163 376.855L308.921 416.764C314.309 420.19 320.878 421.223 327.056 419.615L431.881 392.334C437.046 390.99 441.583 387.891 444.714 383.569L499.741 307.609C504.555 300.964 505.464 292.257 502.127 284.761L475.536 225.037C472.198 217.541 465.12 212.39 456.96 211.521L363.691 201.588C358.383 201.022 353.045 202.32 348.59 205.259L258.175 264.905C252.846 268.421 249.218 273.993 248.159 280.289L235.824 353.632Z" stroke="url(#paint30_linear_5438:24828)" stroke-width="4"/>
<path opacity="0.463768" d="M227.741 348.257C225.764 357.244 229.334 366.544 236.816 371.9L296.661 414.74C301.863 418.463 308.381 419.852 314.649 418.573L419.219 397.227C424.473 396.155 429.188 393.28 432.547 389.099L490.516 316.962C495.644 310.581 496.994 301.955 494.06 294.312L470.826 233.786C467.893 226.144 461.118 220.636 453.037 219.325L361.688 204.506C356.395 203.647 350.967 204.665 346.345 207.384L254.352 261.492C248.837 264.735 244.923 270.129 243.549 276.377L227.741 348.257Z" stroke="url(#paint31_linear_5438:24828)" stroke-width="4"/>
<path opacity="0.478261" d="M220.08 342.95C217.67 351.786 220.732 361.21 227.876 366.942L284.677 412.517C289.677 416.529 296.124 418.272 302.464 417.326L406.448 401.813C411.778 401.017 416.66 398.376 420.241 394.349L480.906 326.132C486.333 320.03 488.117 311.507 485.594 303.741L465.727 242.598C463.203 234.831 456.751 228.985 448.773 227.237L359.598 207.707C354.333 206.554 348.831 207.287 344.052 209.776L250.808 258.346C245.123 261.307 240.931 266.507 239.244 272.692L220.08 342.95Z" stroke="url(#paint32_linear_5438:24828)" stroke-width="4"/>
<path opacity="0.492754" d="M212.832 337.732C209.999 346.396 212.55 355.915 219.336 362.002L272.973 410.113C277.755 414.403 284.113 416.497 290.508 415.888L393.585 406.086C398.977 405.573 404.014 403.174 407.811 399.311L470.924 335.099C476.634 329.289 478.845 320.893 476.737 313.024L460.238 251.447C458.129 243.579 452.016 237.412 444.166 235.236L357.402 211.183C352.183 209.736 346.621 210.178 341.695 212.429L247.527 255.478C241.684 258.149 237.225 263.142 235.228 269.247L212.832 337.732Z" stroke="url(#paint33_linear_5438:24828)" stroke-width="4"/>
<path opacity="0.507246" d="M205.988 332.63C202.744 341.101 204.781 350.689 211.191 357.108L261.559 407.55C266.108 412.105 272.357 414.546 278.789 414.278L380.649 410.048C386.088 409.822 391.27 407.675 395.274 403.987L460.586 343.848C466.563 338.344 469.193 330.094 467.504 322.146L454.362 260.318C452.672 252.37 446.915 245.903 439.215 243.306L355.089 214.93C349.931 213.19 344.323 213.336 339.263 215.342L244.489 252.908C238.504 255.28 233.788 260.051 231.485 266.063L205.988 332.63Z" stroke="url(#paint34_linear_5438:24828)" stroke-width="4"/>
<path opacity="0.521739" d="M199.536 327.665C195.892 335.924 197.417 345.55 203.434 352.279L250.439 404.843C254.739 409.651 260.861 412.433 267.312 412.509L367.657 413.696C373.128 413.761 378.443 411.873 382.647 408.371L449.908 352.357C456.136 347.171 459.174 339.09 457.906 331.086L448.102 269.185C446.834 261.18 441.447 254.434 433.922 251.426L352.644 218.938C347.563 216.907 341.925 216.754 336.742 218.507L241.675 250.643C235.563 252.709 230.601 257.246 227.997 263.149L199.536 327.665Z" stroke="url(#paint35_linear_5438:24828)" stroke-width="4"/>
<path opacity="0.536232" d="M193.462 322.853C189.434 330.88 190.447 340.518 196.056 347.533L239.617 402.006C243.654 407.055 249.63 410.171 256.081 410.592L354.627 417.024C360.115 417.383 365.55 415.762 369.947 412.457L438.907 360.608C445.368 355.75 448.804 347.858 447.96 339.82L441.464 278.024C440.62 269.985 435.617 262.98 428.288 259.572L350.054 223.194C345.067 220.875 339.414 220.42 334.119 221.911L239.065 248.691C232.842 250.445 227.645 254.736 224.745 260.514L193.462 322.853Z" stroke="url(#paint36_linear_5438:24828)" stroke-width="4"/>
<path opacity="0.550725" d="M187.755 318.22C183.356 325.998 183.861 335.619 189.048 342.895L229.096 399.062C232.858 404.337 238.67 407.781 245.103 408.548L341.577 420.04C347.068 420.694 352.611 419.348 357.19 416.248L427.603 368.588C434.278 364.069 438.101 356.386 437.679 348.337L434.455 286.818C434.033 278.769 429.428 271.528 422.318 267.732L347.308 227.693C342.43 225.089 336.777 224.329 331.385 225.554L236.64 247.067C230.322 248.502 224.902 252.534 221.713 258.174L187.755 318.22Z" stroke="url(#paint37_linear_5438:24828)" stroke-width="4"/>
<path opacity="0.565217" d="M182.398 313.784C177.644 321.295 177.644 330.872 182.398 338.383L218.879 396.029C222.351 401.515 227.981 405.279 234.378 406.39L328.525 422.742C334.003 423.693 339.64 422.628 344.393 419.744L416.013 376.282C422.884 372.112 427.08 364.657 427.08 356.619V295.548C427.08 287.51 422.884 280.055 416.013 275.885L344.393 232.424C339.64 229.539 334.003 228.474 328.525 229.426L234.378 245.777C227.981 246.888 222.351 250.652 218.879 256.138L182.398 313.784Z" stroke="url(#paint38_linear_5438:24828)" stroke-width="4"/>
<path opacity="0.57971" d="M177.377 309.557C172.286 316.784 171.787 326.291 176.095 334.011L208.968 392.917C212.139 398.6 217.569 402.673 223.912 404.128L315.49 425.127C320.939 426.376 326.657 425.598 331.574 422.938L404.157 383.671C411.207 379.857 415.762 372.649 416.182 364.645L419.35 304.187C419.77 296.183 415.993 288.538 409.381 284.008L341.299 237.369C336.687 234.209 331.082 232.838 325.532 233.511L232.261 244.822C225.8 245.606 219.974 249.089 216.227 254.409L177.377 309.557Z" stroke="url(#paint39_linear_5438:24828)" stroke-width="4"/>
<path opacity="0.594203" d="M172.676 305.562C167.263 312.491 166.274 321.899 170.128 329.802L199.362 389.752C202.221 395.614 207.434 399.987 213.704 401.783L302.488 427.204C307.893 428.752 313.678 428.266 318.749 425.838L392.057 390.748C399.265 387.298 404.166 380.354 405.001 372.406L411.274 312.722C412.11 304.774 408.76 296.963 402.427 292.09L338.016 242.525C333.56 239.096 328.003 237.418 322.394 237.808L230.265 244.215C223.759 244.667 217.751 247.86 213.736 253L172.676 305.562Z" stroke="url(#paint40_linear_5438:24828)" stroke-width="4"/>
<path opacity="0.608696" d="M168.277 301.816C162.561 308.432 161.091 317.717 164.482 325.775L190.062 386.552C192.598 392.577 197.578 397.238 203.757 399.371L289.537 428.979C294.882 430.824 300.72 430.636 305.935 428.449L379.734 397.504C387.081 394.424 392.31 387.76 393.557 379.892L402.862 321.136C404.109 313.267 401.194 305.314 395.159 300.114L334.534 247.879C330.25 244.188 324.756 242.204 319.102 242.307L228.372 243.959C221.836 244.078 215.66 246.972 211.386 251.919L168.277 301.816Z" stroke="url(#paint41_linear_5438:24828)" stroke-width="4"/>
<path opacity="0.623188" d="M164.162 298.325C158.162 304.615 156.22 313.75 159.143 321.936L181.065 383.324C183.268 389.494 187.999 394.432 194.069 396.898L276.653 430.449C281.923 432.589 287.799 432.702 293.147 430.763L367.207 403.921C374.673 401.215 380.216 394.848 381.867 387.08L394.126 329.404C395.777 321.635 393.304 313.564 387.584 308.055L330.844 253.411C326.747 249.465 321.333 247.177 315.648 246.99L226.558 244.05C220.009 243.833 213.68 246.42 209.157 251.161L164.162 298.325Z" stroke="url(#paint42_linear_5438:24828)" stroke-width="4"/>
<path opacity="0.637681" d="M160.312 295.11C154.046 301.061 151.645 310.023 154.095 318.31L172.368 380.095C174.23 386.393 178.696 391.593 184.638 394.387L263.852 431.626C269.031 434.061 274.931 434.477 280.4 432.795L354.498 409.998C362.065 407.67 367.902 401.615 369.951 393.968L385.077 337.516C387.126 329.869 385.099 321.706 379.71 315.907L326.938 259.116C323.042 254.924 317.724 252.334 312.022 251.853L224.802 244.497C218.258 243.945 211.79 246.216 207.029 250.738L160.312 295.11Z" stroke="url(#paint43_linear_5438:24828)" stroke-width="4"/>
<path opacity="0.652174" d="M156.709 292.182C150.197 297.784 147.35 306.548 149.325 314.907L163.969 376.88C165.483 383.286 169.668 388.736 175.466 391.851L251.153 432.518C256.224 435.243 262.134 435.967 267.713 434.546L341.632 415.728C349.279 413.781 355.393 408.05 357.832 400.546L375.731 345.457C378.17 337.952 376.591 329.722 371.549 323.652L322.809 264.979C319.13 260.551 313.924 257.663 308.219 256.886L223.084 245.299C216.562 244.411 209.972 246.36 204.983 250.653L156.709 292.182Z" stroke="url(#paint44_linear_5438:24828)" stroke-width="4"/>
<path opacity="0.666667" d="M153.332 289.549C146.594 294.792 143.315 303.335 144.814 311.739L155.862 373.691C157.02 380.186 160.912 385.871 166.548 389.301L238.568 433.128C243.517 436.14 249.421 437.173 255.099 436.021L328.629 421.1C336.335 419.536 342.709 414.144 345.527 406.802L366.1 353.207C368.918 345.866 367.79 337.593 363.11 331.274L318.45 270.985C315.001 266.33 309.923 263.147 304.23 262.074L221.383 246.453C214.899 245.23 208.203 246.851 202.996 250.903L153.332 289.549Z" stroke="url(#paint45_linear_5438:24828)" stroke-width="4"/>
<path opacity="0.681159" d="M150.161 287.222C143.218 292.097 139.523 300.398 140.545 308.819L148.042 370.547C148.84 377.112 152.425 383.017 157.881 386.753L226.114 433.467C230.925 436.761 236.808 438.104 242.572 437.226L315.511 426.114C323.258 424.934 329.871 419.891 333.058 412.732L356.199 360.756C359.387 353.597 358.71 345.308 354.403 338.761L313.855 277.121C310.651 272.25 305.716 268.778 300.049 267.407L219.677 247.958C213.249 246.402 206.463 247.689 201.05 251.489L150.161 287.222Z" stroke="url(#paint46_linear_5438:24828)" stroke-width="4"/>
<path opacity="0.695652" d="M147.175 285.211C140.049 289.71 135.954 297.747 136.503 306.157L140.504 367.464C140.936 374.079 144.201 380.186 149.462 384.219L213.806 433.545C218.463 437.116 224.309 438.771 230.147 438.172L302.302 430.767C310.069 429.97 316.902 425.286 320.447 418.329L346.044 368.092C349.589 361.134 349.362 352.854 345.441 346.101L309.02 283.375C306.074 278.3 301.298 274.543 295.672 272.874L217.946 249.811C211.591 247.926 204.731 248.874 199.126 252.413L147.175 285.211Z" stroke="url(#paint47_linear_5438:24828)" stroke-width="4"/>
<path opacity="0.710145" d="M144.355 283.519C137.065 287.637 132.589 295.39 132.668 303.762L133.24 364.454C133.303 371.098 136.237 377.392 141.286 381.712L201.657 433.371C206.145 437.212 211.939 439.178 217.838 438.863L289.023 435.056C296.792 434.64 303.824 430.326 307.714 423.589L335.651 375.2C339.541 368.463 339.761 360.216 336.237 353.28L303.941 289.729C301.264 284.462 296.664 280.428 291.094 278.461L216.171 252.007C209.904 249.795 202.988 250.401 197.202 253.669L144.355 283.519Z" stroke="url(#paint48_linear_5438:24828)" stroke-width="4"/>
<path opacity="0.724638" d="M141.678 282.153C134.247 285.884 129.408 293.335 129.022 301.642L126.243 361.531C125.934 368.185 128.525 374.647 133.347 379.244L189.68 432.954C193.984 437.059 199.711 439.336 205.659 439.308L275.699 438.98C283.449 438.944 290.659 435.007 294.88 428.507L325.036 382.071C329.257 375.571 329.921 367.383 326.802 360.288L298.614 296.17C296.22 290.725 291.81 286.42 286.31 284.157L214.33 254.54C208.17 252.005 201.213 252.266 195.259 255.255L141.678 282.153Z" stroke="url(#paint49_linear_5438:24828)" stroke-width="4"/>
<path opacity="0.73913" d="M139.124 281.118C131.572 284.458 126.39 291.591 125.547 299.805L119.503 358.711C118.821 365.354 121.06 371.966 125.639 376.827L177.887 432.309C181.993 436.669 187.637 439.256 193.62 439.519L262.349 442.542C270.061 442.882 277.429 439.329 281.967 433.084L314.216 388.697C318.753 382.451 319.855 374.346 317.149 367.116L293.036 302.686C290.936 297.077 286.732 292.508 281.317 289.95L212.405 257.404C206.366 254.552 199.387 254.466 193.279 257.167L139.124 281.118Z" stroke="url(#paint50_linear_5438:24828)" stroke-width="4"/>
<path opacity="0.753623" d="M136.67 280.418C129.02 283.365 123.516 290.161 122.224 298.258L113.011 356.007C111.957 362.618 113.835 369.36 118.155 374.474L166.29 431.447C170.183 436.054 175.729 438.948 181.735 439.505L248.995 445.745C256.651 446.456 264.156 443.293 268.994 437.318L303.208 395.068C308.046 389.093 309.579 381.095 307.293 373.754L287.205 309.261C285.411 303.502 281.427 298.679 276.112 295.829L210.376 260.591C204.475 257.428 197.49 256.993 191.243 259.399L136.67 280.418Z" stroke="url(#paint51_linear_5438:24828)" stroke-width="4"/>
<path opacity="0.768116" d="M134.298 280.054C126.57 282.606 120.766 289.052 119.036 297.005L106.76 353.432C105.333 359.99 106.842 366.844 110.891 372.197L154.903 430.382C158.567 435.227 164 438.426 170.015 439.279L235.662 448.594C243.243 449.67 250.863 446.902 255.986 441.212L292.031 401.18C297.154 395.49 299.11 387.623 297.248 380.197L281.122 315.882C279.645 309.99 275.896 304.921 270.694 301.783L208.227 264.094C202.48 260.627 195.506 259.843 189.133 261.947L134.298 280.054Z" stroke="url(#paint52_linear_5438:24828)" stroke-width="4"/>
<path opacity="0.782609" d="M131.984 280.023C124.2 282.18 118.118 288.262 115.961 296.046L100.736 350.993C98.9394 357.477 100.072 364.422 103.836 369.999L143.732 429.123C147.155 434.196 152.459 437.695 158.469 438.847L222.368 451.088C229.856 452.523 237.568 450.154 242.959 444.763L280.701 407.021C286.092 401.63 288.461 393.918 287.026 386.43L274.785 322.531C273.633 316.521 270.134 311.217 265.061 307.794L205.937 267.897C200.36 264.134 193.415 263.001 186.931 264.798L131.984 280.023Z" stroke="url(#paint53_linear_5438:24828)" stroke-width="4"/>
<path opacity="0.797101" d="M129.709 280.327C121.89 282.09 115.552 287.796 112.982 295.388L94.9299 348.704C92.7666 355.093 93.5171 362.11 96.9827 367.897L132.788 427.687C135.956 432.977 141.116 436.774 147.109 438.224L209.135 453.239C216.512 455.025 224.295 453.056 229.936 447.977L269.237 412.591C274.877 407.512 277.649 399.977 276.644 392.453L268.195 329.198C267.379 323.086 264.142 317.558 259.212 313.854L203.493 271.995C198.099 267.943 191.2 266.464 184.619 267.947L129.709 280.327Z" stroke="url(#paint54_linear_5438:24828)" stroke-width="4"/>
<path opacity="0.811594" d="M127.45 280.967C119.618 282.338 113.049 287.657 110.079 295.034L89.3294 346.578C86.8039 352.852 87.1674 359.919 90.3232 365.9L122.08 426.09C124.98 431.586 129.98 435.675 135.942 437.426L195.981 455.056C203.231 457.184 211.064 455.617 216.936 450.862L257.656 417.887C263.528 413.132 266.69 405.796 266.115 398.263L261.354 335.87C260.881 329.674 257.921 323.933 253.148 319.954L200.875 276.377C195.681 272.046 188.844 270.221 182.182 271.387L127.45 280.967Z" stroke="url(#paint55_linear_5438:24828)" stroke-width="4"/>
<path opacity="0.826087" d="M125.191 281.931C117.365 282.913 110.589 287.836 107.236 294.975L83.9247 344.617C81.0427 350.754 81.0154 357.85 83.8501 364.009L111.617 424.34C114.236 430.03 119.062 434.406 124.98 436.456L182.93 456.538C190.036 459.001 197.896 457.834 203.98 453.414L245.979 422.899C252.063 418.479 255.602 411.364 255.456 403.845L254.264 342.526C254.143 336.263 251.472 330.322 246.87 326.073L198.073 281.022C193.091 276.422 186.334 274.255 179.606 275.1L125.191 281.931Z" stroke="url(#paint56_linear_5438:24828)" stroke-width="4"/>
<path opacity="0.84058" d="M122.907 283.222C115.109 283.82 108.15 288.34 104.432 295.22L78.7002 342.836C75.4684 348.817 75.0477 355.92 77.5511 362.241L101.404 422.46C103.729 428.33 108.365 432.987 114.225 435.337L169.996 457.706C176.941 460.492 184.808 459.724 191.084 455.648L234.221 427.635C240.497 423.559 244.398 416.685 244.678 409.207L246.927 349.16C247.163 342.85 244.795 336.721 240.378 332.209L195.067 285.925C190.311 281.067 183.65 278.562 176.872 279.082L122.907 283.222Z" stroke="url(#paint57_linear_5438:24828)" stroke-width="4"/>
<path opacity="0.855072" d="M120.583 284.833C112.832 285.053 105.714 289.162 101.649 295.764L73.6456 341.243C70.072 347.046 69.2564 354.136 71.4189 360.6L91.4473 420.463C93.4673 426.501 97.8993 431.431 103.688 434.08L157.199 458.567C163.97 461.665 171.821 461.294 178.27 457.571L222.401 432.092C228.849 428.369 233.096 421.755 233.799 414.342L239.348 355.757C239.948 349.419 237.894 343.116 233.676 338.348L191.847 291.071C187.33 285.966 180.783 283.128 173.97 283.321L120.583 284.833Z" stroke="url(#paint58_linear_5438:24828)" stroke-width="4"/>
<path opacity="0.869565" d="M118.197 286.753C110.514 286.601 103.262 290.296 98.8695 296.601L68.7466 339.839C64.8403 345.446 63.6296 352.5 65.4426 359.088L81.7522 418.361C83.4556 424.552 87.669 429.748 93.3736 432.695L144.556 459.129C151.137 462.528 158.953 462.55 165.553 459.187L210.537 436.267C217.136 432.904 221.713 426.569 222.831 419.246L231.529 362.301C232.499 355.954 230.771 349.491 226.764 344.474L188.398 296.439C184.133 291.1 177.715 287.933 170.883 287.798L118.197 286.753Z" stroke="url(#paint59_linear_5438:24828)" stroke-width="4"/>
<path opacity="0.884058" d="M115.733 288.979C108.136 288.462 100.776 291.739 96.0763 297.731L63.9908 338.635C59.762 344.026 58.157 351.022 59.6128 357.717L72.3233 416.174C73.6994 422.503 77.6798 427.958 83.2866 431.199L132.084 459.41C138.462 463.098 146.22 463.506 152.951 460.51L198.646 440.165C205.376 437.169 210.263 431.13 211.791 423.923L223.478 368.782C224.821 362.446 223.43 355.838 219.648 350.581L184.711 302.02C180.709 296.458 174.437 292.97 167.601 292.505L115.733 288.979Z" stroke="url(#paint60_linear_5438:24828)" stroke-width="4"/>
<path opacity="0.898551" d="M113.173 291.498C105.681 290.626 98.237 293.484 93.2523 299.145L59.3644 337.635C54.8246 342.791 52.8274 349.706 53.9193 356.489L63.1638 413.916C64.2023 420.367 67.9356 426.072 73.4316 429.606L119.798 459.421C125.96 463.383 133.641 464.173 140.48 461.548L186.745 443.788C193.584 441.163 198.764 435.436 200.692 428.369L215.198 375.187C216.918 368.883 215.875 362.145 212.33 356.656L180.774 307.794C177.047 302.023 170.935 298.22 164.111 297.426L113.173 291.498Z" stroke="url(#paint61_linear_5438:24828)" stroke-width="4"/>
<path opacity="0.913043" d="M110.499 294.301C103.129 293.083 95.6264 295.521 90.3794 300.838L54.8524 336.84C50.0141 341.743 47.628 348.556 48.3502 355.406L54.2744 411.601C54.9657 418.158 58.4383 424.104 63.8103 427.927L107.71 459.175C113.644 463.398 121.228 464.562 128.155 462.311L174.85 447.139C181.777 444.888 187.228 439.489 189.546 432.585L206.696 381.501C208.794 375.25 208.109 368.399 204.814 362.688L176.576 313.743C173.134 307.777 167.199 303.667 160.403 302.545L110.499 294.301Z" stroke="url(#paint62_linear_5438:24828)" stroke-width="4"/>
<path opacity="0.927536" d="M107.698 297.378C100.467 295.825 92.9304 297.845 87.4445 302.805L50.4438 336.258C45.3208 340.89 42.5504 347.579 42.8981 354.477L45.6597 409.249C45.9948 415.896 49.193 422.072 54.4281 426.182L95.8379 458.69C101.533 463.161 109 464.689 115.993 462.816L162.979 450.226C169.973 448.352 175.675 443.295 178.372 436.576L197.979 387.718C200.458 381.541 200.14 374.593 197.107 368.669L172.112 319.854C168.965 313.707 163.221 309.299 156.468 307.849L107.698 297.378Z" stroke="url(#paint63_linear_5438:24828)" stroke-width="4"/>
<path opacity="0.942029" d="M104.752 300.715C97.6765 298.839 90.1308 300.443 84.4301 305.035L46.123 335.889C40.7297 340.233 37.5808 346.776 37.5505 353.701L37.318 406.873C37.2886 413.592 40.1992 419.989 45.2847 424.381L84.1909 457.98C89.6362 462.683 96.9683 464.566 104.006 463.071L151.147 453.05C158.185 451.554 164.117 446.852 167.179 440.341L189.055 393.821C191.915 387.741 191.972 380.713 189.212 374.587L167.373 326.106C164.528 319.792 158.99 315.096 152.297 313.321L104.752 300.715Z" stroke="url(#paint64_linear_5438:24828)" stroke-width="4"/>
<path opacity="0.956522" d="M101.648 304.305C94.7438 302.118 87.2129 303.311 81.3224 307.524L41.8768 335.738C36.2292 339.778 32.7088 346.153 32.2978 353.084L29.2497 404.494C28.8481 411.267 31.4582 417.873 36.3817 422.543L72.7814 457.066C77.9679 461.985 85.1468 464.213 92.2071 463.095L139.37 455.625C146.43 454.507 152.569 450.17 155.982 443.888L179.932 399.807C183.171 393.844 183.612 386.755 181.137 380.437L162.352 332.485C159.819 326.02 154.501 321.045 147.882 318.949L101.648 304.305Z" stroke="url(#paint65_linear_5438:24828)" stroke-width="4"/>
<path opacity="0.971014" d="M98.3719 308.127C91.6536 305.642 84.1613 306.43 78.1063 310.257L37.6907 335.801C31.8054 339.521 27.9218 345.706 27.1286 352.623L21.4528 402.121C20.672 408.931 22.9691 415.734 27.7181 420.677L61.6185 455.959C66.5379 461.079 73.5463 463.639 80.6076 462.897L127.661 457.952C134.722 457.21 141.045 453.248 144.793 447.217L170.617 405.657C174.234 399.835 175.067 392.703 172.887 386.205L157.044 338.968C154.83 332.367 149.745 327.125 143.215 324.71L98.3719 308.127Z" stroke="url(#paint66_linear_5438:24828)" stroke-width="4"/>
<path opacity="0.985507" d="M94.9134 312.169C88.3947 309.401 80.9642 309.791 74.7705 313.225L33.5529 336.079C27.4478 339.465 23.2105 345.439 22.0347 352.32L13.927 399.773C12.7606 406.6 14.7324 413.588 19.2949 418.799L50.7132 454.678C55.3582 459.982 62.1794 462.863 69.2205 462.494L116.036 460.041C123.077 459.672 129.56 456.093 133.625 450.333L161.121 411.366C165.113 405.707 166.344 398.551 164.47 391.883L151.447 345.538C149.558 338.818 144.72 333.319 138.294 330.59L94.9134 312.169Z" stroke="url(#paint67_linear_5438:24828)" stroke-width="4"/>
<path d="M91.2587 316.42C84.9524 313.383 77.6063 313.383 71.3 316.42L29.4475 336.575C23.1412 339.612 18.561 345.356 17.0035 352.18L6.66679 397.468C5.10925 404.292 6.7439 411.453 11.108 416.926L40.0708 453.244C44.4349 458.717 51.0535 461.904 58.053 461.904H104.506C111.505 461.904 118.124 458.717 122.488 453.244L151.451 416.926C155.815 411.453 157.449 404.292 155.892 397.468L145.555 352.18C143.998 345.356 139.417 339.612 133.111 336.575L91.2587 316.42Z" stroke="url(#paint68_linear_5438:24828)" stroke-width="4"/>
<defs>
<linearGradient id="paint0_linear_5438:24828" x1="795.237" y1="377.068" x2="361.901" y2="311.416" gradientUnits="userSpaceOnUse">
<stop stop-color="#CCFF00"/>
<stop offset="0.651042" stop-color="#1CEFFF"/>
<stop offset="1" stop-color="#1CEFFF"/>
</linearGradient>
<linearGradient id="paint1_linear_5438:24828" x1="779.16" y1="388.166" x2="352.77" y2="299.852" gradientUnits="userSpaceOnUse">
<stop stop-color="#CCFF00"/>
<stop offset="0.651042" stop-color="#1CEFFF"/>
<stop offset="1" stop-color="#1CEFFF"/>
</linearGradient>
<linearGradient id="paint2_linear_5438:24828" x1="762.705" y1="398.742" x2="344.442" y2="288.311" gradientUnits="userSpaceOnUse">
<stop stop-color="#CCFF00"/>
<stop offset="0.651042" stop-color="#1CEFFF"/>
<stop offset="1" stop-color="#1CEFFF"/>
</linearGradient>
<linearGradient id="paint3_linear_5438:24828" x1="745.9" y1="408.775" x2="336.906" y2="276.836" gradientUnits="userSpaceOnUse">
<stop stop-color="#CCFF00"/>
<stop offset="0.651042" stop-color="#1CEFFF"/>
<stop offset="1" stop-color="#1CEFFF"/>
</linearGradient>
<linearGradient id="paint4_linear_5438:24828" x1="728.778" y1="418.255" x2="330.154" y2="265.474" gradientUnits="userSpaceOnUse">
<stop stop-color="#CCFF00"/>
<stop offset="0.651042" stop-color="#1CEFFF"/>
<stop offset="1" stop-color="#1CEFFF"/>
</linearGradient>
<linearGradient id="paint5_linear_5438:24828" x1="711.37" y1="427.166" x2="324.175" y2="254.266" gradientUnits="userSpaceOnUse">
<stop stop-color="#CCFF00"/>
<stop offset="0.651042" stop-color="#1CEFFF"/>
<stop offset="1" stop-color="#1CEFFF"/>
</linearGradient>
<linearGradient id="paint6_linear_5438:24828" x1="693.712" y1="435.502" x2="318.956" y2="243.26" gradientUnits="userSpaceOnUse">
<stop stop-color="#CCFF00"/>
<stop offset="0.651042" stop-color="#1CEFFF"/>
<stop offset="1" stop-color="#1CEFFF"/>
</linearGradient>
<linearGradient id="paint7_linear_5438:24828" x1="675.834" y1="443.258" x2="314.477" y2="232.499" gradientUnits="userSpaceOnUse">
<stop stop-color="#CCFF00"/>
<stop offset="0.651042" stop-color="#1CEFFF"/>
<stop offset="1" stop-color="#1CEFFF"/>
</linearGradient>
<linearGradient id="paint8_linear_5438:24828" x1="657.77" y1="450.422" x2="310.72" y2="222.022" gradientUnits="userSpaceOnUse">
<stop stop-color="#CCFF00"/>
<stop offset="0.651042" stop-color="#1CEFFF"/>
<stop offset="1" stop-color="#1CEFFF"/>
</linearGradient>
<linearGradient id="paint9_linear_5438:24828" x1="639.552" y1="456.995" x2="307.664" y2="211.871" gradientUnits="userSpaceOnUse">
<stop stop-color="#CCFF00"/>
<stop offset="0.651042" stop-color="#1CEFFF"/>
<stop offset="1" stop-color="#1CEFFF"/>
</linearGradient>
<linearGradient id="paint10_linear_5438:24828" x1="621.216" y1="462.972" x2="305.285" y2="202.084" gradientUnits="userSpaceOnUse">
<stop stop-color="#CCFF00"/>
<stop offset="0.651042" stop-color="#1CEFFF"/>
<stop offset="1" stop-color="#1CEFFF"/>
</linearGradient>
<linearGradient id="paint11_linear_5438:24828" x1="602.791" y1="468.354" x2="303.557" y2="192.699" gradientUnits="userSpaceOnUse">
<stop stop-color="#CCFF00"/>
<stop offset="0.651042" stop-color="#1CEFFF"/>
<stop offset="1" stop-color="#1CEFFF"/>
</linearGradient>
<linearGradient id="paint12_linear_5438:24828" x1="584.312" y1="473.143" x2="302.452" y2="183.752" gradientUnits="userSpaceOnUse">
<stop stop-color="#CCFF00"/>
<stop offset="0.651042" stop-color="#1CEFFF"/>
<stop offset="1" stop-color="#1CEFFF"/>
</linearGradient>
<linearGradient id="paint13_linear_5438:24828" x1="565.81" y1="477.338" x2="301.94" y2="175.272" gradientUnits="userSpaceOnUse">
<stop stop-color="#CCFF00"/>
<stop offset="0.651042" stop-color="#1CEFFF"/>
<stop offset="1" stop-color="#1CEFFF"/>
</linearGradient>
<linearGradient id="paint14_linear_5438:24828" x1="547.317" y1="480.951" x2="301.99" y2="167.299" gradientUnits="userSpaceOnUse">
<stop stop-color="#CCFF00"/>
<stop offset="0.651042" stop-color="#1CEFFF"/>
<stop offset="1" stop-color="#1CEFFF"/>
</linearGradient>
<linearGradient id="paint15_linear_5438:24828" x1="528.863" y1="483.98" x2="302.567" y2="159.852" gradientUnits="userSpaceOnUse">
<stop stop-color="#CCFF00"/>
<stop offset="0.651042" stop-color="#1CEFFF"/>
<stop offset="1" stop-color="#1CEFFF"/>
</linearGradient>
<linearGradient id="paint16_linear_5438:24828" x1="510.48" y1="486.438" x2="303.638" y2="152.966" gradientUnits="userSpaceOnUse">
<stop stop-color="#CCFF00"/>
<stop offset="0.651042" stop-color="#1CEFFF"/>
<stop offset="1" stop-color="#1CEFFF"/>
</linearGradient>
<linearGradient id="paint17_linear_5438:24828" x1="492.197" y1="488.339" x2="305.165" y2="146.669" gradientUnits="userSpaceOnUse">
<stop stop-color="#CCFF00"/>
<stop offset="0.651042" stop-color="#1CEFFF"/>
<stop offset="1" stop-color="#1CEFFF"/>
</linearGradient>
<linearGradient id="paint18_linear_5438:24828" x1="474.043" y1="489.688" x2="307.112" y2="140.978" gradientUnits="userSpaceOnUse">
<stop stop-color="#CCFF00"/>
<stop offset="0.651042" stop-color="#1CEFFF"/>
<stop offset="1" stop-color="#1CEFFF"/>
</linearGradient>
<linearGradient id="paint19_linear_5438:24828" x1="456.044" y1="490.495" x2="309.438" y2="135.911" gradientUnits="userSpaceOnUse">
<stop stop-color="#CCFF00"/>
<stop offset="0.651042" stop-color="#1CEFFF"/>
<stop offset="1" stop-color="#1CEFFF"/>
</linearGradient>
<linearGradient id="paint20_linear_5438:24828" x1="438.229" y1="490.782" x2="312.104" y2="131.495" gradientUnits="userSpaceOnUse">
<stop stop-color="#CCFF00"/>
<stop offset="0.651042" stop-color="#1CEFFF"/>
<stop offset="1" stop-color="#1CEFFF"/>
</linearGradient>
<linearGradient id="paint21_linear_5438:24828" x1="420.623" y1="490.562" x2="315.07" y2="127.743" gradientUnits="userSpaceOnUse">
<stop stop-color="#CCFF00"/>
<stop offset="0.651042" stop-color="#1CEFFF"/>
<stop offset="1" stop-color="#1CEFFF"/>
</linearGradient>
<linearGradient id="paint22_linear_5438:24828" x1="403.25" y1="489.849" x2="318.293" y2="124.665" gradientUnits="userSpaceOnUse">
<stop stop-color="#CCFF00"/>
<stop offset="0.651042" stop-color="#1CEFFF"/>
<stop offset="1" stop-color="#1CEFFF"/>
</linearGradient>
<linearGradient id="paint23_linear_5438:24828" x1="386.136" y1="488.663" x2="321.732" y2="122.276" gradientUnits="userSpaceOnUse">
<stop stop-color="#CCFF00"/>
<stop offset="0.651042" stop-color="#1CEFFF"/>
<stop offset="1" stop-color="#1CEFFF"/>
</linearGradient>
<linearGradient id="paint24_linear_5438:24828" x1="369.301" y1="487.021" x2="325.344" y2="120.579" gradientUnits="userSpaceOnUse">
<stop stop-color="#CCFF00"/>
<stop offset="0.651042" stop-color="#1CEFFF"/>
<stop offset="1" stop-color="#1CEFFF"/>
</linearGradient>
<linearGradient id="paint25_linear_5438:24828" x1="352.767" y1="484.947" x2="329.086" y2="119.587" gradientUnits="userSpaceOnUse">
<stop stop-color="#CCFF00"/>
<stop offset="0.651042" stop-color="#1CEFFF"/>
<stop offset="1" stop-color="#1CEFFF"/>
</linearGradient>
<linearGradient id="paint26_linear_5438:24828" x1="336.554" y1="482.457" x2="332.914" y2="119.297" gradientUnits="userSpaceOnUse">
<stop stop-color="#CCFF00"/>
<stop offset="0.651042" stop-color="#1CEFFF"/>
<stop offset="1" stop-color="#1CEFFF"/>
</linearGradient>
<linearGradient id="paint27_linear_5438:24828" x1="320.68" y1="479.577" x2="336.787" y2="119.713" gradientUnits="userSpaceOnUse">
<stop stop-color="#CCFF00"/>
<stop offset="0.651042" stop-color="#1CEFFF"/>
<stop offset="1" stop-color="#1CEFFF"/>
</linearGradient>
<linearGradient id="paint28_linear_5438:24828" x1="305.162" y1="476.328" x2="340.661" y2="120.832" gradientUnits="userSpaceOnUse">
<stop stop-color="#CCFF00"/>
<stop offset="0.651042" stop-color="#1CEFFF"/>
<stop offset="1" stop-color="#1CEFFF"/>
</linearGradient>
<linearGradient id="paint29_linear_5438:24828" x1="290.014" y1="472.731" x2="344.492" y2="122.648" gradientUnits="userSpaceOnUse">
<stop stop-color="#CCFF00"/>
<stop offset="0.651042" stop-color="#1CEFFF"/>
<stop offset="1" stop-color="#1CEFFF"/>
</linearGradient>
<linearGradient id="paint30_linear_5438:24828" x1="275.254" y1="468.814" x2="348.242" y2="125.157" gradientUnits="userSpaceOnUse">
<stop stop-color="#CCFF00"/>
<stop offset="0.651042" stop-color="#1CEFFF"/>
<stop offset="1" stop-color="#1CEFFF"/>
</linearGradient>
<linearGradient id="paint31_linear_5438:24828" x1="260.89" y1="464.601" x2="351.864" y2="128.348" gradientUnits="userSpaceOnUse">
<stop stop-color="#CCFF00"/>
<stop offset="0.651042" stop-color="#1CEFFF"/>
<stop offset="1" stop-color="#1CEFFF"/>
</linearGradient>
<linearGradient id="paint32_linear_5438:24828" x1="246.937" y1="460.115" x2="355.321" y2="132.208" gradientUnits="userSpaceOnUse">
<stop stop-color="#CCFF00"/>
<stop offset="0.651042" stop-color="#1CEFFF"/>
<stop offset="1" stop-color="#1CEFFF"/>
</linearGradient>
<linearGradient id="paint33_linear_5438:24828" x1="233.402" y1="455.378" x2="358.572" y2="136.721" gradientUnits="userSpaceOnUse">
<stop stop-color="#CCFF00"/>
<stop offset="0.651042" stop-color="#1CEFFF"/>
<stop offset="1" stop-color="#1CEFFF"/>
</linearGradient>
<linearGradient id="paint34_linear_5438:24828" x1="220.295" y1="450.423" x2="361.579" y2="141.875" gradientUnits="userSpaceOnUse">
<stop stop-color="#CCFF00"/>
<stop offset="0.651042" stop-color="#1CEFFF"/>
<stop offset="1" stop-color="#1CEFFF"/>
</linearGradient>
<linearGradient id="paint35_linear_5438:24828" x1="207.622" y1="445.272" x2="364.304" y2="147.649" gradientUnits="userSpaceOnUse">
<stop stop-color="#CCFF00"/>
<stop offset="0.651042" stop-color="#1CEFFF"/>
<stop offset="1" stop-color="#1CEFFF"/>
</linearGradient>
<linearGradient id="paint36_linear_5438:24828" x1="195.387" y1="439.947" x2="366.71" y2="154.018" gradientUnits="userSpaceOnUse">
<stop stop-color="#CCFF00"/>
<stop offset="0.651042" stop-color="#1CEFFF"/>
<stop offset="1" stop-color="#1CEFFF"/>
</linearGradient>
<linearGradient id="paint37_linear_5438:24828" x1="183.595" y1="434.479" x2="368.762" y2="160.963" gradientUnits="userSpaceOnUse">
<stop stop-color="#CCFF00"/>
<stop offset="0.651042" stop-color="#1CEFFF"/>
<stop offset="1" stop-color="#1CEFFF"/>
</linearGradient>
<linearGradient id="paint38_linear_5438:24828" x1="172.247" y1="428.894" x2="370.427" y2="168.459" gradientUnits="userSpaceOnUse">
<stop stop-color="#CCFF00"/>
<stop offset="0.651042" stop-color="#1CEFFF"/>
<stop offset="1" stop-color="#1CEFFF"/>
</linearGradient>
<linearGradient id="paint39_linear_5438:24828" x1="161.345" y1="423.21" x2="371.673" y2="176.472" gradientUnits="userSpaceOnUse">
<stop stop-color="#CCFF00"/>
<stop offset="0.651042" stop-color="#1CEFFF"/>
<stop offset="1" stop-color="#1CEFFF"/>
</linearGradient>
<linearGradient id="paint40_linear_5438:24828" x1="150.888" y1="417.459" x2="372.471" y2="184.979" gradientUnits="userSpaceOnUse">
<stop stop-color="#CCFF00"/>
<stop offset="0.651042" stop-color="#1CEFFF"/>
<stop offset="1" stop-color="#1CEFFF"/>
</linearGradient>
<linearGradient id="paint41_linear_5438:24828" x1="140.874" y1="411.668" x2="372.793" y2="193.95" gradientUnits="userSpaceOnUse">
<stop stop-color="#CCFF00"/>
<stop offset="0.651042" stop-color="#1CEFFF"/>
<stop offset="1" stop-color="#1CEFFF"/>
</linearGradient>
<linearGradient id="paint42_linear_5438:24828" x1="131.298" y1="405.851" x2="372.612" y2="203.344" gradientUnits="userSpaceOnUse">
<stop stop-color="#CCFF00"/>
<stop offset="0.651042" stop-color="#1CEFFF"/>
<stop offset="1" stop-color="#1CEFFF"/>
</linearGradient>
<linearGradient id="paint43_linear_5438:24828" x1="122.157" y1="400.041" x2="371.904" y2="213.136" gradientUnits="userSpaceOnUse">
<stop stop-color="#CCFF00"/>
<stop offset="0.651042" stop-color="#1CEFFF"/>
<stop offset="1" stop-color="#1CEFFF"/>
</linearGradient>
<linearGradient id="paint44_linear_5438:24828" x1="113.444" y1="394.26" x2="370.648" y2="223.288" gradientUnits="userSpaceOnUse">
<stop stop-color="#CCFF00"/>
<stop offset="0.651042" stop-color="#1CEFFF"/>
<stop offset="1" stop-color="#1CEFFF"/>
</linearGradient>
<linearGradient id="paint45_linear_5438:24828" x1="105.153" y1="388.528" x2="368.824" y2="233.759" gradientUnits="userSpaceOnUse">
<stop stop-color="#CCFF00"/>
<stop offset="0.651042" stop-color="#1CEFFF"/>
<stop offset="1" stop-color="#1CEFFF"/>
</linearGradient>
<linearGradient id="paint46_linear_5438:24828" x1="97.2729" y1="382.869" x2="366.415" y2="244.516" gradientUnits="userSpaceOnUse">
<stop stop-color="#CCFF00"/>
<stop offset="0.651042" stop-color="#1CEFFF"/>
<stop offset="1" stop-color="#1CEFFF"/>
</linearGradient>
<linearGradient id="paint47_linear_5438:24828" x1="89.7965" y1="377.304" x2="363.407" y2="255.519" gradientUnits="userSpaceOnUse">
<stop stop-color="#CCFF00"/>
<stop offset="0.651042" stop-color="#1CEFFF"/>
<stop offset="1" stop-color="#1CEFFF"/>
</linearGradient>
<linearGradient id="paint48_linear_5438:24828" x1="82.712" y1="371.852" x2="359.786" y2="266.726" gradientUnits="userSpaceOnUse">
<stop stop-color="#CCFF00"/>
<stop offset="0.651042" stop-color="#1CEFFF"/>
<stop offset="1" stop-color="#1CEFFF"/>
</linearGradient>
<linearGradient id="paint49_linear_5438:24828" x1="76.0081" y1="366.534" x2="355.544" y2="278.098" gradientUnits="userSpaceOnUse">
<stop stop-color="#CCFF00"/>
<stop offset="0.651042" stop-color="#1CEFFF"/>
<stop offset="1" stop-color="#1CEFFF"/>
</linearGradient>
<linearGradient id="paint50_linear_5438:24828" x1="69.6716" y1="361.368" x2="350.672" y2="289.595" gradientUnits="userSpaceOnUse">
<stop stop-color="#CCFF00"/>
<stop offset="0.651042" stop-color="#1CEFFF"/>
<stop offset="1" stop-color="#1CEFFF"/>
</linearGradient>
<linearGradient id="paint51_linear_5438:24828" x1="63.6883" y1="356.373" x2="345.165" y2="301.175" gradientUnits="userSpaceOnUse">
<stop stop-color="#CCFF00"/>
<stop offset="0.651042" stop-color="#1CEFFF"/>
<stop offset="1" stop-color="#1CEFFF"/>
</linearGradient>
<linearGradient id="paint52_linear_5438:24828" x1="58.0462" y1="351.567" x2="339.024" y2="312.798" gradientUnits="userSpaceOnUse">
<stop stop-color="#CCFF00"/>
<stop offset="0.651042" stop-color="#1CEFFF"/>
<stop offset="1" stop-color="#1CEFFF"/>
</linearGradient>
<linearGradient id="paint53_linear_5438:24828" x1="52.7271" y1="346.96" x2="332.246" y2="324.418" gradientUnits="userSpaceOnUse">
<stop stop-color="#CCFF00"/>
<stop offset="0.651042" stop-color="#1CEFFF"/>
<stop offset="1" stop-color="#1CEFFF"/>
</linearGradient>
<linearGradient id="paint54_linear_5438:24828" x1="47.7167" y1="342.571" x2="324.836" y2="335.997" gradientUnits="userSpaceOnUse">
<stop stop-color="#CCFF00"/>
<stop offset="0.651042" stop-color="#1CEFFF"/>
<stop offset="1" stop-color="#1CEFFF"/>
</linearGradient>
<linearGradient id="paint55_linear_5438:24828" x1="42.9977" y1="338.416" x2="316.799" y2="347.496" gradientUnits="userSpaceOnUse">
<stop stop-color="#CCFF00"/>
<stop offset="0.651042" stop-color="#1CEFFF"/>
<stop offset="1" stop-color="#1CEFFF"/>
</linearGradient>
<linearGradient id="paint56_linear_5438:24828" x1="38.5552" y1="334.498" x2="308.145" y2="358.865" gradientUnits="userSpaceOnUse">
<stop stop-color="#CCFF00"/>
<stop offset="0.651042" stop-color="#1CEFFF"/>
<stop offset="1" stop-color="#1CEFFF"/>
</linearGradient>
<linearGradient id="paint57_linear_5438:24828" x1="34.3683" y1="330.838" x2="298.883" y2="370.074" gradientUnits="userSpaceOnUse">
<stop stop-color="#CCFF00"/>
<stop offset="0.651042" stop-color="#1CEFFF"/>
<stop offset="1" stop-color="#1CEFFF"/>
</linearGradient>
<linearGradient id="paint58_linear_5438:24828" x1="30.4214" y1="327.445" x2="289.027" y2="381.079" gradientUnits="userSpaceOnUse">
<stop stop-color="#CCFF00"/>
<stop offset="0.651042" stop-color="#1CEFFF"/>
<stop offset="1" stop-color="#1CEFFF"/>
</linearGradient>
<linearGradient id="paint59_linear_5438:24828" x1="26.6949" y1="324.321" x2="278.594" y2="391.839" gradientUnits="userSpaceOnUse">
<stop stop-color="#CCFF00"/>
<stop offset="0.651042" stop-color="#1CEFFF"/>
<stop offset="1" stop-color="#1CEFFF"/>
</linearGradient>
<linearGradient id="paint60_linear_5438:24828" x1="23.1711" y1="321.481" x2="267.601" y2="402.32" gradientUnits="userSpaceOnUse">
<stop stop-color="#CCFF00"/>
<stop offset="0.651042" stop-color="#1CEFFF"/>
<stop offset="1" stop-color="#1CEFFF"/>
</linearGradient>
<linearGradient id="paint61_linear_5438:24828" x1="19.8308" y1="318.927" x2="256.072" y2="412.483" gradientUnits="userSpaceOnUse">
<stop stop-color="#CCFF00"/>
<stop offset="0.651042" stop-color="#1CEFFF"/>
<stop offset="1" stop-color="#1CEFFF"/>
</linearGradient>
<linearGradient id="paint62_linear_5438:24828" x1="16.6538" y1="316.664" x2="244.026" y2="422.291" gradientUnits="userSpaceOnUse">
<stop stop-color="#CCFF00"/>
<stop offset="0.651042" stop-color="#1CEFFF"/>
<stop offset="1" stop-color="#1CEFFF"/>
</linearGradient>
<linearGradient id="paint63_linear_5438:24828" x1="13.624" y1="314.7" x2="231.493" y2="431.714" gradientUnits="userSpaceOnUse">
<stop stop-color="#CCFF00"/>
<stop offset="0.651042" stop-color="#1CEFFF"/>
<stop offset="1" stop-color="#1CEFFF"/>
</linearGradient>
<linearGradient id="paint64_linear_5438:24828" x1="10.7205" y1="313.035" x2="218.5" y2="440.716" gradientUnits="userSpaceOnUse">
<stop stop-color="#CCFF00"/>
<stop offset="0.651042" stop-color="#1CEFFF"/>
<stop offset="1" stop-color="#1CEFFF"/>
</linearGradient>
<linearGradient id="paint65_linear_5438:24828" x1="7.92503" y1="311.674" x2="205.076" y2="449.271" gradientUnits="userSpaceOnUse">
<stop stop-color="#CCFF00"/>
<stop offset="0.651042" stop-color="#1CEFFF"/>
<stop offset="1" stop-color="#1CEFFF"/>
</linearGradient>
<linearGradient id="paint66_linear_5438:24828" x1="5.21817" y1="310.612" x2="191.254" y2="457.345" gradientUnits="userSpaceOnUse">
<stop stop-color="#CCFF00"/>
<stop offset="0.651042" stop-color="#1CEFFF"/>
<stop offset="1" stop-color="#1CEFFF"/>
</linearGradient>
<linearGradient id="paint67_linear_5438:24828" x1="2.58339" y1="309.852" x2="177.071" y2="464.913" gradientUnits="userSpaceOnUse">
<stop stop-color="#CCFF00"/>
<stop offset="0.651042" stop-color="#1CEFFF"/>
<stop offset="1" stop-color="#1CEFFF"/>
</linearGradient>
<linearGradient id="paint68_linear_5438:24828" x1="7.62939e-05" y1="309.395" x2="162.559" y2="471.953" gradientUnits="userSpaceOnUse">
<stop stop-color="#CCFF00"/>
<stop offset="0.651042" stop-color="#1CEFFF"/>
<stop offset="1" stop-color="#1CEFFF"/>
</linearGradient>
</defs>
</svg>
