<svg width="24" height="19" viewBox="0 0 24 19" fill="none" xmlns="http://www.w3.org/2000/svg">
<path d="M20.317 1.65704C18.7873 0.955156 17.147 0.438041 15.4319 0.141867C15.4007 0.136151 15.3695 0.150436 15.3534 0.179006C15.1424 0.554221 14.9087 1.04372 14.7451 1.42846C12.9004 1.15229 11.0652 1.15229 9.25832 1.42846C9.09465 1.03517 8.85248 0.554221 8.64057 0.179006C8.62448 0.151389 8.59328 0.137105 8.56205 0.141867C6.84791 0.437094 5.20756 0.95421 3.67694 1.65704C3.66368 1.66275 3.65233 1.67228 3.64479 1.68466C0.533392 6.33302 -0.31895 10.8671 0.0991801 15.345C0.101072 15.3669 0.11337 15.3879 0.130398 15.4012C2.18321 16.9087 4.17171 17.8239 6.12328 18.4306C6.15451 18.4401 6.18761 18.4287 6.20748 18.403C6.66913 17.7725 7.08064 17.1078 7.43348 16.4088C7.4543 16.3678 7.43442 16.3192 7.39186 16.3031C6.73913 16.0555 6.1176 15.7536 5.51973 15.4107C5.47244 15.3831 5.46865 15.3155 5.51216 15.2831C5.63797 15.1888 5.76382 15.0907 5.88395 14.9917C5.90569 14.9736 5.93598 14.9698 5.96153 14.9812C9.88928 16.7745 14.1415 16.7745 18.023 14.9812C18.0485 14.9688 18.0788 14.9726 18.1015 14.9907C18.2216 15.0898 18.3475 15.1888 18.4742 15.2831C18.5177 15.3155 18.5149 15.3831 18.4676 15.4107C17.8697 15.7602 17.2482 16.0555 16.5945 16.3021C16.552 16.3183 16.533 16.3678 16.5538 16.4088C16.9143 17.1068 17.3258 17.7716 17.7789 18.402C17.7978 18.4287 17.8319 18.4401 17.8631 18.4306C19.8241 17.8239 21.8126 16.9087 23.8654 15.4012C23.8834 15.3879 23.8948 15.3679 23.8967 15.346C24.3971 10.169 23.0585 5.6721 20.3482 1.6856C20.3416 1.67228 20.3303 1.66275 20.317 1.65704ZM8.02002 12.6184C6.8375 12.6184 5.86313 11.5328 5.86313 10.1995C5.86313 8.86623 6.8186 7.78059 8.02002 7.78059C9.23087 7.78059 10.1958 8.87577 10.1769 10.1995C10.1769 11.5328 9.22141 12.6184 8.02002 12.6184ZM15.9947 12.6184C14.8123 12.6184 13.8379 11.5328 13.8379 10.1995C13.8379 8.86623 14.7933 7.78059 15.9947 7.78059C17.2056 7.78059 18.1705 8.87577 18.1516 10.1995C18.1516 11.5328 17.2056 12.6184 15.9947 12.6184Z" fill="#FAFAFB"/>
</svg>
