<svg width="306" height="372" viewBox="0 0 306 372" fill="none" xmlns="http://www.w3.org/2000/svg">
<path d="M299.511 156.998C305.282 151.484 305.282 142.268 299.511 136.753L162.672 6.00709C157.26 0.836809 148.74 0.836814 143.328 6.0071L6.48914 136.753C0.717896 142.268 0.717896 151.484 6.48914 156.998L36.6618 185.827C42.073 190.997 50.5937 190.997 56.0049 185.827L140.565 105.032C147.522 98.3846 158.478 98.3846 165.435 105.032L249.995 185.827C255.406 190.997 263.927 190.997 269.338 185.827L299.511 156.998ZM299.511 337.164C305.282 331.649 305.282 322.433 299.511 316.919L162.672 186.173C157.26 181.003 148.74 181.003 143.328 186.173L6.48914 316.919C0.717896 322.433 0.717896 331.649 6.48914 337.164L36.6618 365.993C42.073 371.163 50.5937 371.163 56.0049 365.993L140.565 285.198C147.522 278.55 158.478 278.55 165.435 285.198L249.995 365.993C255.406 371.163 263.927 371.163 269.338 365.993L299.511 337.164Z" stroke="url(#paint0_linear_5628:24859)" stroke-width="4"/>
<defs>
<linearGradient id="paint0_linear_5628:24859" x1="-6.99994" y1="-6" x2="370.705" y2="308.754" gradientUnits="userSpaceOnUse">
<stop stop-color="#CCFF00"/>
<stop offset="0.651042" stop-color="#00FFA3"/>
<stop offset="1" stop-color="#00FFA3"/>
</linearGradient>
</defs>
</svg>
