<svg width="20" height="16" viewBox="0 0 20 16" fill="none" xmlns="http://www.w3.org/2000/svg">
<path d="M17.6335 3.99753C17.6465 4.17253 17.6465 4.34653 17.6465 4.52053C17.6465 9.84553 13.5935 15.9815 6.18649 15.9815C3.90449 15.9815 1.78449 15.3205 0.000488281 14.1725C0.324488 14.2095 0.636488 14.2225 0.973488 14.2225C2.85649 14.2225 4.58949 13.5865 5.97449 12.5015C4.20349 12.4645 2.71949 11.3045 2.20749 9.70853C2.45649 9.74553 2.70649 9.77053 2.96849 9.77053C3.32949 9.77053 3.69249 9.72053 4.02949 9.63353C2.18249 9.25953 0.799488 7.63853 0.799488 5.68053V5.63053C1.33649 5.92953 1.95949 6.11653 2.61949 6.14153C1.53449 5.41953 0.823488 4.18453 0.823488 2.78753C0.823488 2.03953 1.02249 1.35353 1.37149 0.755531C3.35449 3.19853 6.33549 4.79553 9.67749 4.97053C9.61549 4.67053 9.57749 4.35953 9.57749 4.04753C9.57749 1.82753 11.3735 0.0195312 13.6055 0.0195312C14.7655 0.0195312 15.8125 0.505531 16.5485 1.29153C17.4585 1.11653 18.3305 0.779531 19.1045 0.318531C18.8055 1.25353 18.1685 2.03953 17.3335 2.53853C18.1445 2.45053 18.9305 2.22653 19.6525 1.91453C19.1045 2.71253 18.4195 3.42353 17.6335 3.99753Z" fill="#FAFAFB"/>
</svg>
